<svg class="diagram-root" style="background: #f5f6f6" xmlns="http://www.w3.org/2000/svg" xmlns:xlink="http://www.w3.org/1999/xlink"><style>.diagram-root { font-family: "Helvetica Neue", sans-serif; font-size: 12px; } .t { overflow: visible; } .t-bg { y: 40; fill: #fff;   } .th { fill: #005aa0;   } .tht { fill: #fff; font-size: 14px;  } .tf { fill: #323c46; overflow: visible; } .tf.pk { fill: #005aa0; font-weight: bold; } .tf.fk { font-weight: bold; } .ty { fill: #adb1b5; font-weight: normal; text-anchor: end; } .r { fill: transparent; stroke: #c3c3c3; stroke-width: 1; } .l { stroke: 1; } .i { fill: #c2c7ce; stroke: #c2c7ce; } .i.ix { fill: #afb3b6; stroke: #000; } .fa { fill: transparent; overflow: visible; } .fa .bg.hover { fill: #f7f7f7; } .c { cy: 12; r: 4; stroke: #d2d2dc; fill: #d2d2dc; } .hr { fill: transparent; stroke: #323c46; stroke-opacity: 0.035; stroke-width: 13; } .dc { stroke: #fa5a3c; fill: #fa5a3c; } .x { stroke: white; stroke-width: 1; } .hl .th { fill: #1b9bff; } .hl .tht {  } .fhl .bg { fill: #e7f4ff; } .fhls .bg {  } .r.hl { stroke: #1b9bff; } .dim { opacity: 0.25; }</style><g class="drawing-wrapper" transform="translate(244.85142857142856, 156.2788888888889) scale(1,1)"><g class="rs"><path d="M -54.38 60.58 m -1, 0 a 1,1 0 1,0 2,0 a 1,1 0 1,0 -2,0 M -54.38 60.58 m -0.5, 0 a 0.5,0.5 0 1,0 1,0 a 0.5,0.5 0 1,0 -1,0  M-54.38 60.58 L-54.38 60.58 -42.38 60.58 M -54.38 66.58 m -1, 0 a 1,1 0 1,0 2,0 a 1,1 0 1,0 -2,0 M -54.38 66.58 m -0.5, 0 a 0.5,0.5 0 1,0 1,0 a 0.5,0.5 0 1,0 -1,0  M-54.38 66.58 L-54.38 66.58 -47.38 60.58 -54.38 54.58 M -54.38 54.58 m -1, 0 a 1,1 0 1,0 2,0 a 1,1 0 1,0 -2,0 M -54.38 54.58 m -0.5, 0 a 0.5,0.5 0 1,0 1,0 a 0.5,0.5 0 1,0 -1,0  M-42.38 60.58 Q -8.32 60.58, 25.75 196.94 T 93.88 333.29 M 105.88 333.29 m -1, 0 a 1,1 0 1,0 2,0 a 1,1 0 1,0 -2,0 M 105.88 333.29 m -0.5, 0 a 0.5,0.5 0 1,0 1,0 a 0.5,0.5 0 1,0 -1,0  M105.88 333.29 L105.88 333.29 93.88 333.29 M99.88 339.29 L99.88 339.29 99.88 327.29" id="h1537058300" class="r"></path><path d="M 107.78 59.22 m -1, 0 a 1,1 0 1,0 2,0 a 1,1 0 1,0 -2,0 M 107.78 59.22 m -0.5, 0 a 0.5,0.5 0 1,0 1,0 a 0.5,0.5 0 1,0 -1,0  M107.78 59.22 L107.78 59.22 95.78 59.22 M 107.78 65.22 m -1, 0 a 1,1 0 1,0 2,0 a 1,1 0 1,0 -2,0 M 107.78 65.22 m -0.5, 0 a 0.5,0.5 0 1,0 1,0 a 0.5,0.5 0 1,0 -1,0  M107.78 65.22 L107.78 65.22 100.78 59.22 107.78 53.22 M 107.78 53.22 m -1, 0 a 1,1 0 1,0 2,0 a 1,1 0 1,0 -2,0 M 107.78 53.22 m -0.5, 0 a 0.5,0.5 0 1,0 1,0 a 0.5,0.5 0 1,0 -1,0  M95.78 59.22 Q 61.24 59.22, 26.7 47.4 T -42.38 35.58 M -54.38 35.58 m -1, 0 a 1,1 0 1,0 2,0 a 1,1 0 1,0 -2,0 M -54.38 35.58 m -0.5, 0 a 0.5,0.5 0 1,0 1,0 a 0.5,0.5 0 1,0 -1,0  M-54.38 35.58 L-54.38 35.58 -42.38 35.58 M-48.38 41.58 L-48.38 41.58 -48.38 29.58" id="h1139284389" class="r"></path><path d="M 254.91 84.22 m -1, 0 a 1,1 0 1,0 2,0 a 1,1 0 1,0 -2,0 M 254.91 84.22 m -0.5, 0 a 0.5,0.5 0 1,0 1,0 a 0.5,0.5 0 1,0 -1,0  M254.91 84.22 L254.91 84.22 266.90999999999997 84.22 M 254.91 90.22 m -1, 0 a 1,1 0 1,0 2,0 a 1,1 0 1,0 -2,0 M 254.91 90.22 m -0.5, 0 a 0.5,0.5 0 1,0 1,0 a 0.5,0.5 0 1,0 -1,0  M254.91 90.22 L254.91 90.22 261.90999999999997 84.22 254.91 78.22 M 254.91 78.22 m -1, 0 a 1,1 0 1,0 2,0 a 1,1 0 1,0 -2,0 M 254.91 78.22 m -0.5, 0 a 0.5,0.5 0 1,0 1,0 a 0.5,0.5 0 1,0 -1,0  M266.90999999999997 84.22 Q 306.21 84.22, 345.51 92.95 T 424.11 101.68 M 436.11 101.68 m -1, 0 a 1,1 0 1,0 2,0 a 1,1 0 1,0 -2,0 M 436.11 101.68 m -0.5, 0 a 0.5,0.5 0 1,0 1,0 a 0.5,0.5 0 1,0 -1,0  M436.11 101.68 L436.11 101.68 424.11 101.68 M430.11 107.68 L430.11 107.68 430.11 95.68" id="h1607168654" class="r"></path><path d="M 255.46 190.33 m -1, 0 a 1,1 0 1,0 2,0 a 1,1 0 1,0 -2,0 M 255.46 190.33 m -0.5, 0 a 0.5,0.5 0 1,0 1,0 a 0.5,0.5 0 1,0 -1,0  M255.46 190.33 L255.46 190.33 267.46000000000004 190.33 M 255.46 196.33 m -1, 0 a 1,1 0 1,0 2,0 a 1,1 0 1,0 -2,0 M 255.46 196.33 m -0.5, 0 a 0.5,0.5 0 1,0 1,0 a 0.5,0.5 0 1,0 -1,0  M255.46 196.33 L255.46 196.33 262.46000000000004 190.33 255.46 184.33 M 255.46 184.33 m -1, 0 a 1,1 0 1,0 2,0 a 1,1 0 1,0 -2,0 M 255.46 184.33 m -0.5, 0 a 0.5,0.5 0 1,0 1,0 a 0.5,0.5 0 1,0 -1,0  M267.46000000000004 190.33 Q 306.63 190.33, 345.79 146.01 T 424.11 101.68 M 436.11 101.68 m -1, 0 a 1,1 0 1,0 2,0 a 1,1 0 1,0 -2,0 M 436.11 101.68 m -0.5, 0 a 0.5,0.5 0 1,0 1,0 a 0.5,0.5 0 1,0 -1,0  M436.11 101.68 L436.11 101.68 424.11 101.68 M430.11 107.68 L430.11 107.68 430.11 95.68" id="h1397587031" class="r"></path><path d="M 108.33 215.33 m -1, 0 a 1,1 0 1,0 2,0 a 1,1 0 1,0 -2,0 M 108.33 215.33 m -0.5, 0 a 0.5,0.5 0 1,0 1,0 a 0.5,0.5 0 1,0 -1,0  M108.33 215.33 L108.33 215.33 96.33 215.33 M 108.33 221.33 m -1, 0 a 1,1 0 1,0 2,0 a 1,1 0 1,0 -2,0 M 108.33 221.33 m -0.5, 0 a 0.5,0.5 0 1,0 1,0 a 0.5,0.5 0 1,0 -1,0  M108.33 221.33 L108.33 221.33 101.33 215.33 108.33 209.33 M 108.33 209.33 m -1, 0 a 1,1 0 1,0 2,0 a 1,1 0 1,0 -2,0 M 108.33 209.33 m -0.5, 0 a 0.5,0.5 0 1,0 1,0 a 0.5,0.5 0 1,0 -1,0  M96.33 215.33 Q 61.66 215.33, 26.98 125.46 T -42.38 35.58 M -54.38 35.58 m -1, 0 a 1,1 0 1,0 2,0 a 1,1 0 1,0 -2,0 M -54.38 35.58 m -0.5, 0 a 0.5,0.5 0 1,0 1,0 a 0.5,0.5 0 1,0 -1,0  M-54.38 35.58 L-54.38 35.58 -42.38 35.58 M-48.38 41.58 L-48.38 41.58 -48.38 29.58" id="h2286254435" class="r"></path><path d="M 106.03 -69.28 m -1, 0 a 1,1 0 1,0 2,0 a 1,1 0 1,0 -2,0 M 106.03 -69.28 m -0.5, 0 a 0.5,0.5 0 1,0 1,0 a 0.5,0.5 0 1,0 -1,0  M106.03 -69.28 L106.03 -69.28 94.03 -69.28 M 106.03 -63.28 m -1, 0 a 1,1 0 1,0 2,0 a 1,1 0 1,0 -2,0 M 106.03 -63.28 m -0.5, 0 a 0.5,0.5 0 1,0 1,0 a 0.5,0.5 0 1,0 -1,0  M106.03 -63.28 L106.03 -63.28 99.03 -69.28 106.03 -75.28 M 106.03 -75.28 m -1, 0 a 1,1 0 1,0 2,0 a 1,1 0 1,0 -2,0 M 106.03 -75.28 m -0.5, 0 a 0.5,0.5 0 1,0 1,0 a 0.5,0.5 0 1,0 -1,0  M94.03 -69.28 Q 59.93 -69.28, 25.83 -16.85 T -42.38 35.58 M -54.38 35.58 m -1, 0 a 1,1 0 1,0 2,0 a 1,1 0 1,0 -2,0 M -54.38 35.58 m -0.5, 0 a 0.5,0.5 0 1,0 1,0 a 0.5,0.5 0 1,0 -1,0  M-54.38 35.58 L-54.38 35.58 -42.38 35.58 M-48.38 41.58 L-48.38 41.58 -48.38 29.58" id="h3177548053" class="r"></path></g><g class="hrs"></g><g class="ts"><svg width="167.13" height="100" x="436.11" y="44.68" id="h475896179" class="t"><rect height="40" width="167.13" class="th"></rect><text x="13" y="25" class="tht">departments</text><rect height="60" width="167.13" class="t-bg" y="40"></rect><text x="13" y="61" class="tf pk">dept_no<tspan x="154.13" class="ty">VARCHAR</tspan></text><path d="M7,14A2,2 0 0,1 5,12A2,2 0 0,1 7,10A2,2 0 0,1 9,12A2,2 0 0,1 7,14M12.65,10C11.83,7.67 9.61,6 7, 6A6, 6 0 0, 0 1, 12A6, 6 0 0, 0 7, 18C9.61, 18 11.83, 16.33 12.65, 14H17V18H21V14H23V10H12.65Z" class="i pk" transform="translate(76.33000076293945, 48) scale(0.65)"></path><text x="13" y="86" class="tf">dept_name<tspan x="154.13" class="ty">VARCHAR</tspan></text></svg><svg width="158.47" height="100" x="105.88" y="276.29" id="h311790747" class="t"><rect height="40" width="158.47" class="th"></rect><text x="13" y="25" class="tht">titles</text><rect height="60" width="158.47" class="t-bg" y="40"></rect><text x="13" y="61" class="tf pk">title_id<tspan x="145.47" class="ty">VARCHAR</tspan></text><path d="M7,14A2,2 0 0,1 5,12A2,2 0 0,1 7,10A2,2 0 0,1 9,12A2,2 0 0,1 7,14M12.65,10C11.83,7.67 9.61,6 7, 6A6, 6 0 0, 0 1, 12A6, 6 0 0, 0 7, 18C9.61, 18 11.83, 16.33 12.65, 14H17V18H21V14H23V10H12.65Z" class="i pk" transform="translate(67.67000076293945, 48) scale(0.65)"></path><text x="13" y="86" class="tf">title<tspan x="145.47" class="ty">VARCHAR</tspan></text></svg><svg width="168.47" height="225" x="-222.85" y="-21.42" id="h1639608377" class="t"><rect height="40" width="168.47" class="th"></rect><text x="13" y="25" class="tht">employees</text><rect height="185" width="168.47" class="t-bg" y="40"></rect><text x="13" y="61" class="tf pk">emp_no<tspan x="155.47" class="ty">INT</tspan></text><path d="M7,14A2,2 0 0,1 5,12A2,2 0 0,1 7,10A2,2 0 0,1 9,12A2,2 0 0,1 7,14M12.65,10C11.83,7.67 9.61,6 7, 6A6, 6 0 0, 0 1, 12A6, 6 0 0, 0 7, 18C9.61, 18 11.83, 16.33 12.65, 14H17V18H21V14H23V10H12.65Z" class="i pk" transform="translate(116.13666603088379, 48) scale(0.65)"></path><text x="13" y="86" class="tf fk">emp_title_id<tspan x="155.47" class="ty">VARCHAR</tspan></text><text x="13" y="111" class="tf">birth_date<tspan x="155.47" class="ty">DATE</tspan></text><text x="13" y="136" class="tf">first_name<tspan x="155.47" class="ty">VARCHAR</tspan></text><text x="13" y="161" class="tf">last_name<tspan x="155.47" class="ty">VARCHAR</tspan></text><text x="13" y="186" class="tf">sex<tspan x="155.47" class="ty">VARCHAR</tspan></text><text x="13" y="211" class="tf">hire_date<tspan x="155.47" class="ty">DATE</tspan></text></svg><svg width="147.13" height="100" x="107.78" y="2.22" id="h1090417462" class="t"><rect height="40" width="147.13" class="th"></rect><text x="13" y="25" class="tht">dept_emp</text><rect height="60" width="147.13" class="t-bg" y="40"></rect><text x="13" y="61" class="tf fk">emp_no<tspan x="134.13" class="ty">INT</tspan></text><text x="13" y="86" class="tf fk">dept_no<tspan x="134.13" class="ty">VARCHAR</tspan></text></svg><svg width="147.13" height="100" x="108.33" y="133.33" id="h1676682957" class="t"><rect height="40" width="147.13" class="th"></rect><text x="13" y="25" class="tht">dept_manager</text><rect height="60" width="147.13" class="t-bg" y="40"></rect><text x="13" y="61" class="tf fk">dept_no<tspan x="134.13" class="ty">VARCHAR</tspan></text><text x="13" y="86" class="tf fk">emp_no<tspan x="134.13" class="ty">INT</tspan></text></svg><svg width="108.67" height="100" x="106.03" y="-126.28" id="h2472833127" class="t"><rect height="40" width="108.67" class="th"></rect><text x="13" y="25" class="tht">salaries</text><rect height="60" width="108.67" class="t-bg" y="40"></rect><text x="13" y="61" class="tf fk">emp_no<tspan x="95.67" class="ty">INT</tspan></text><text x="13" y="86" class="tf">salary<tspan x="95.67" class="ty">INT</tspan></text></svg></g></g><text class="qdbd-link" x="10" y="20">www.quickdatabasediagrams.com</text></svg>